<svg width="24" height="24" fill="none" xmlns="http://www.w3.org/2000/svg"><g clip-path="url(#clip0)"><path d="M19.778 14.25s-2.222 3.257-2.222 4.5c0 1.243.995 2.25 2.222 2.25C21.005 21 22 19.993 22 18.75s-2.222-4.5-2.222-4.5zm-.325-3.619L12.24 3.329a1.1 1.1 0 00-1.57 0L7.837 6.197l-2.993-3.03a.55.55 0 00-.785 0l-.786.796a.568.568 0 000 .795l2.993 3.03-3.29 3.331a3.404 3.404 0 000 4.772l4.069 4.12a3.302 3.302 0 004.713 0l7.694-7.79a1.135 1.135 0 000-1.59zm-4.036 2.495H4.29c.047-.135.124-.28.258-.416l.456-.462 2.834-2.87 2.035 2.06c.433.44 1.137.44 1.57 0a1.135 1.135 0 000-1.59L9.41 7.788l2.047-2.072 5.64 5.71-1.679 1.7z" fill="#000" fill-opacity=".541"/></g><defs><clipPath id="clip0"><path fill="#fff" transform="translate(2 3)" d="M0 0h20v18H0z"/></clipPath></defs></svg>